<svg width="52" height="65" viewBox="0 0 52 65" fill="none" xmlns="http://www.w3.org/2000/svg">
<g clip-path="url(#clip0_40_2)">
<path d="M34.125 17.8332H34.625V17.3332V15.4373C34.625 12.8135 33.7323 10.2844 32.1249 8.40916C30.5154 6.53149 28.3146 5.45817 26 5.45817C23.6854 5.45817 21.4846 6.53149 19.8751 8.40916C18.2677 10.2844 17.375 12.8135 17.375 15.4373V17.3332V17.8332H17.875H34.125ZM36.875 17.3332V17.8332H37.375H48.25V55.2498C48.25 57.1512 47.6019 58.9621 46.4666 60.2867C45.3333 61.6088 43.8142 62.3332 42.25 62.3332H9.75C8.18576 62.3332 6.66673 61.6088 5.53343 60.2867C4.3981 58.9621 3.75 57.1512 3.75 55.2498V17.8332H14.625H15.125V17.3332V15.4373C15.125 12.0275 16.2867 8.77 18.3363 6.37884C20.3838 3.99005 23.1428 2.6665 26 2.6665C28.8572 2.6665 31.6162 3.99005 33.6637 6.37884C35.7133 8.77 36.875 12.0275 36.875 15.4373V17.3332Z" fill="#0038FF" stroke="white"/>
</g>
<path d="M13.7415 26.8182H19.9418L25.9119 38.0938H26.1676L32.1378 26.8182H38.3381L28.7884 43.7443V53H23.2912V43.7443L13.7415 26.8182Z" fill="white"/>
<defs>
<clipPath id="clip0_40_2">
<rect width="52" height="60.6667" fill="white" transform="translate(0 2.1665)"/>
</clipPath>
</defs>
</svg>
